<svg width="36" height="37" viewBox="0 0 36 37" fill="none" xmlns="http://www.w3.org/2000/svg">
<rect y="0.107971" width="36" height="36" rx="18" fill="#28A028"/>
<path d="M17.9997 15.358C17.2703 15.358 16.5709 15.6477 16.0551 16.1634C15.5394 16.6791 15.2497 17.3786 15.2497 18.108C15.2497 18.8373 15.5394 19.5368 16.0551 20.0525C16.5709 20.5682 17.2703 20.858 17.9997 20.858C18.729 20.858 19.4285 20.5682 19.9442 20.0525C20.4599 19.5368 20.7497 18.8373 20.7497 18.108C20.7497 17.3786 20.4599 16.6791 19.9442 16.1634C19.4285 15.6477 18.729 15.358 17.9997 15.358ZM17.9997 13.5246C19.2153 13.5246 20.381 14.0075 21.2406 14.867C22.1001 15.7266 22.583 16.8924 22.583 18.108C22.583 19.3235 22.1001 20.4893 21.2406 21.3489C20.381 22.2084 19.2153 22.6913 17.9997 22.6913C16.7841 22.6913 15.6183 22.2084 14.7588 21.3489C13.8992 20.4893 13.4163 19.3235 13.4163 18.108C13.4163 16.8924 13.8992 15.7266 14.7588 14.867C15.6183 14.0075 16.7841 13.5246 17.9997 13.5246ZM23.958 13.2955C23.958 13.5993 23.8373 13.8908 23.6224 14.1057C23.4075 14.3206 23.1161 14.4413 22.8122 14.4413C22.5083 14.4413 22.2168 14.3206 22.0019 14.1057C21.7871 13.8908 21.6663 13.5993 21.6663 13.2955C21.6663 12.9916 21.7871 12.7001 22.0019 12.4852C22.2168 12.2703 22.5083 12.1496 22.8122 12.1496C23.1161 12.1496 23.4075 12.2703 23.6224 12.4852C23.8373 12.7001 23.958 12.9916 23.958 13.2955ZM17.9997 10.7746C15.7318 10.7746 15.3615 10.781 14.3064 10.8278C13.5878 10.8617 13.1056 10.958 12.6583 11.1321C12.2604 11.2861 11.9735 11.4704 11.6683 11.7765C11.3813 12.0537 11.1607 12.3922 11.0229 12.7665C10.8488 13.2157 10.7525 13.697 10.7195 14.4147C10.6718 15.4267 10.6663 15.7805 10.6663 18.108C10.6663 20.3758 10.6728 20.7461 10.7195 21.8012C10.7534 22.519 10.8497 23.002 11.0229 23.4485C11.1788 23.8472 11.3621 24.1341 11.6664 24.4385C11.9753 24.7465 12.2623 24.9307 12.6564 25.0829C13.1093 25.2579 13.5914 25.3551 14.3064 25.3881C15.3184 25.4358 15.6723 25.4413 17.9997 25.4413C20.2675 25.4413 20.6378 25.4349 21.6929 25.3881C22.4098 25.3542 22.8928 25.258 23.3402 25.0847C23.7371 24.9298 24.0258 24.7455 24.3302 24.4412C24.6391 24.1323 24.8233 23.8454 24.9755 23.4512C25.1497 22.9993 25.2468 22.5162 25.2798 21.8012C25.3275 20.7892 25.333 20.4354 25.333 18.108C25.333 15.8401 25.3266 15.4698 25.2798 14.4147C25.2459 13.6979 25.1497 13.2139 24.9755 12.7665C24.8374 12.3925 24.6172 12.0542 24.3311 11.7765C24.054 11.4895 23.7156 11.2689 23.3411 11.1312C22.8919 10.957 22.4098 10.8608 21.6929 10.8278C20.6809 10.7801 20.3271 10.7746 17.9997 10.7746ZM17.9997 8.94128C20.4903 8.94128 20.801 8.95045 21.7782 8.99628C22.7544 9.04212 23.419 9.1952 24.0038 9.42253C24.6088 9.65537 25.1185 9.9707 25.6282 10.4795C26.0943 10.9377 26.455 11.492 26.6851 12.1038C26.9115 12.6877 27.0655 13.3532 27.1113 14.3295C27.1544 15.3066 27.1663 15.6174 27.1663 18.108C27.1663 20.5985 27.1572 20.9093 27.1113 21.8865C27.0655 22.8627 26.9115 23.5273 26.6851 24.1121C26.4556 24.7242 26.0949 25.2787 25.6282 25.7365C25.1698 26.2024 24.6155 26.5631 24.0038 26.7934C23.4199 27.0198 22.7544 27.1738 21.7782 27.2196C20.801 27.2627 20.4903 27.2746 17.9997 27.2746C15.5091 27.2746 15.1983 27.2655 14.2212 27.2196C13.2449 27.1738 12.5803 27.0198 11.9955 26.7934C11.3835 26.5637 10.8291 26.203 10.3712 25.7365C9.90496 25.2783 9.54428 24.724 9.31426 24.1121C9.08692 23.5282 8.93384 22.8627 8.88801 21.8865C8.84492 20.9093 8.83301 20.5985 8.83301 18.108C8.83301 15.6174 8.84217 15.3066 8.88801 14.3295C8.93384 13.3523 9.08692 12.6886 9.31426 12.1038C9.54364 11.4916 9.90441 10.9372 10.3712 10.4795C10.8292 10.0131 11.3836 9.65237 11.9955 9.42253C12.5803 9.1952 13.244 9.04212 14.2212 8.99628C15.1983 8.9532 15.5091 8.94128 17.9997 8.94128Z" fill="white"/>
</svg>
