<svg width="82" height="95" viewBox="0 0 82 95" fill="none" xmlns="http://www.w3.org/2000/svg">
<path d="M69.7021 69.755L48.174 91.2832C46.2712 93.184 43.6917 94.2517 41.0021 94.2517C38.3126 94.2517 35.7331 93.184 33.8303 91.2832L12.2971 69.755C6.62065 64.0783 2.755 56.8458 1.18898 48.9721C-0.377042 41.0983 0.426906 32.9371 3.49916 25.5203C6.57141 18.1035 11.774 11.7642 18.449 7.30419C25.124 2.84416 32.9717 0.463623 40.9996 0.463623C49.0275 0.463623 56.8752 2.84416 63.5502 7.30419C70.2252 11.7642 75.4278 18.1035 78.5001 25.5203C81.5723 32.9371 82.3763 41.0983 80.8102 48.9721C79.2442 56.8458 75.3786 64.0783 69.7021 69.755Z" fill="#28A028"/>
<path d="M40.9987 56.274C49.4053 56.274 56.2202 49.4591 56.2202 41.0526C56.2202 32.646 49.4053 25.8312 40.9987 25.8312C32.5922 25.8312 25.7773 32.646 25.7773 41.0526C25.7773 49.4591 32.5922 56.274 40.9987 56.274Z" fill="#ACEAAC"/>
</svg>
