<svg width="24" height="29" viewBox="0 0 24 29" fill="none" xmlns="http://www.w3.org/2000/svg">
<g id="Group 10">
<path id="Vector" d="M12 17.0924C14.2782 17.0924 16.125 15.2456 16.125 12.9674C16.125 10.6892 14.2782 8.84241 12 8.84241C9.72182 8.84241 7.875 10.6892 7.875 12.9674C7.875 15.2456 9.72182 17.0924 12 17.0924Z" stroke="#28A028" stroke-width="2" stroke-linecap="round" stroke-linejoin="round"/>
<path id="Vector_2" d="M19.7784 20.7457L13.9442 26.5799C13.4286 27.095 12.7296 27.3843 12.0007 27.3843C11.2718 27.3843 10.5728 27.095 10.0571 26.5799L4.22163 20.7457C2.68331 19.2073 1.63572 17.2473 1.21133 15.1136C0.786934 12.9798 1.0048 10.7681 1.83738 8.75812C2.66996 6.74817 4.07986 5.03024 5.88879 3.82157C7.69772 2.6129 9.82443 1.96777 12 1.96777C14.1756 1.96777 16.3023 2.6129 18.1112 3.82157C19.9201 5.03024 21.33 6.74817 22.1626 8.75812C22.9952 10.7681 23.2131 12.9798 22.7887 15.1136C22.3643 17.2473 21.3167 19.2073 19.7784 20.7457Z" stroke="#28A028" stroke-width="2" stroke-linecap="round" stroke-linejoin="round"/>
</g>
</svg>
