<svg width="36" height="36" viewBox="0 0 36 36" fill="none" xmlns="http://www.w3.org/2000/svg">
<rect y="0.107971" width="36" height="35.2414" rx="17.6207" fill="#28A028"/>
<path d="M26.7474 12.8591C27.1663 14.4363 27.1663 17.7287 27.1663 17.7287C27.1663 17.7287 27.1663 21.0211 26.7474 22.5983C26.5146 23.4701 25.8335 24.156 24.9709 24.3879C23.4043 24.8091 17.9997 24.8091 17.9997 24.8091C17.9997 24.8091 12.5978 24.8091 11.0284 24.3879C10.1622 24.1524 9.48201 23.4674 9.25192 22.5983C8.83301 21.0211 8.83301 17.7287 8.83301 17.7287C8.83301 17.7287 8.83301 14.4363 9.25192 12.8591C9.48476 11.9873 10.1658 11.3014 11.0284 11.0695C12.5978 10.6482 17.9997 10.6482 17.9997 10.6482C17.9997 10.6482 23.4043 10.6482 24.9709 11.0695C25.8372 11.3049 26.5173 11.99 26.7474 12.8591ZM16.1663 20.8264L21.6663 17.7287L16.1663 14.631V20.8264Z" fill="white"/>
</svg>
